<?xml version="1.0" standalone="no"?><!DOCTYPE svg PUBLIC "-//W3C//DTD SVG 1.1//EN" "http://www.w3.org/Graphics/SVG/1.1/DTD/svg11.dtd"><svg class="icon" height="512" viewBox="0 0 1024 1024" version="1.1" xmlns="http://www.w3.org/2000/svg"><path d="M170.666667 416a341.333333 96 0 1 0 682.666666 0 341.333333 96 0 1 0-682.666666 0Z" fill="#3949AB" /><path d="M170.666667 458.666667a341.333333 96 0 1 0 682.666666 0 341.333333 96 0 1 0-682.666666 0Z" fill="#1A237E" /><path d="M457.813333 66.816l-47.509333 14.954667a74.730667 74.730667 0 0 0-48.810667 93.653333l68.586667 134.976a74.666667 74.666667 0 1 0 142.464-44.842667L551.466667 115.626667a74.730667 74.730667 0 0 0-93.653334-48.810667z m53.098667 251.669333a42.602667 42.602667 0 0 1-53.504-27.882666 42.645333 42.645333 0 0 1 27.882667-53.504 42.645333 42.645333 0 1 1 25.621333 81.386666z m-18.048-128.469333l-40.704 12.778667a42.666667 42.666667 0 1 1-25.621333-81.386667L467.2 108.586667a42.709333 42.709333 0 0 1 25.664 81.429333z" fill="#5C6BC0" /><path d="M745.962667 388.864C684.928 372.629333 602.688 362.666667 512 362.666667c-162.410667 0-297.962667 31.914667-332.48 74.666666 26.837333 33.258667 114.88 59.861333 229.013333 70.08l337.429334-118.549333z" fill="#5C6BC0" /><path d="M382.506667 517.461333l362.197333-128.128a162.048 162.048 0 0 0-5.461333-18.346666c-33.792-93.312-144.597333-138.837333-244.138667-102.762667-99.498667 36.053333-152.768 140.885333-118.954667 234.218667 1.856 5.141333 4.032 10.133333 6.357334 15.018666z" fill="#9FA8DA" /><path d="M512 512c-188.522667 0-341.333333-42.986667-341.333333-96V853.333333s0.085333 9.557333 19.797333 21.290667C237.312 911.914667 363.370667 938.666667 512 938.666667s274.688-26.752 321.536-64.042667C853.248 862.890667 853.333333 853.333333 853.333333 853.333333V416c0 53.013333-152.810667 96-341.333333 96z" fill="#9FA8DA" /><path d="M512 789.333333c-188.522667 0-341.333333-42.986667-341.333333-96v42.666667c0 53.013333 152.810667 96 341.333333 96s341.333333-42.986667 341.333333-96v-42.666667c0 53.013333-152.810667 96-341.333333 96z" fill="#5C6BC0" /><path d="M512 704c-188.522667 0-341.333333-42.986667-341.333333-96v42.666667c0 53.013333 152.810667 96 341.333333 96s341.333333-42.986667 341.333333-96v-42.666667c0 53.013333-152.810667 96-341.333333 96z" fill="#5C6BC0" /><path d="M512 618.666667c-188.522667 0-341.333333-42.986667-341.333333-96v42.666666c0 53.013333 152.810667 96 341.333333 96s341.333333-42.986667 341.333333-96v-42.666666c0 53.013333-152.810667 96-341.333333 96z" fill="#5C6BC0" /></svg>